<svg width="104" height="104" viewBox="0 0 104 104" fill="none" xmlns="http://www.w3.org/2000/svg">
<path fill-rule="evenodd" clip-rule="evenodd" d="M1 52C1 80.1665 23.8335 103 52 103C80.1665 103 103 80.1665 103 52C103 23.8335 80.1665 1 52 1C23.8335 1 1 23.8335 1 52ZM52 0C23.2812 0 0 23.2812 0 52C0 80.7188 23.2812 104 52 104C80.7188 104 104 80.7188 104 52C104 23.2812 80.7188 0 52 0Z" fill="#3F7619"/>
<path d="M78.7071 52.7071C79.0976 52.3165 79.0976 51.6834 78.7071 51.2928L72.3431 44.9289C71.9526 44.5384 71.3195 44.5384 70.9289 44.9289C70.5384 45.3194 70.5384 45.9526 70.9289 46.3431L76.5858 51.9999L70.9289 57.6568C70.5384 58.0473 70.5384 58.6804 70.9289 59.071C71.3195 59.4615 71.9526 59.4615 72.3431 59.071L78.7071 52.7071ZM25 52.9999H78V50.9999H25V52.9999Z" fill="#3F7619"/>
</svg>
