<svg width="100" height="101" viewBox="0 0 100 101" fill="none" xmlns="http://www.w3.org/2000/svg">
<path fill-rule="evenodd" clip-rule="evenodd" d="M50 99.8048C77.0544 99.8048 99 77.6942 99 50.4024C99 23.1106 77.0544 1 50 1C22.9456 1 1 23.1106 1 50.4024C1 77.6942 22.9456 99.8048 50 99.8048ZM50 100.805C77.6142 100.805 100 78.2389 100 50.4024C100 22.5659 77.6142 0 50 0C22.3858 0 0 22.5659 0 50.4024C0 78.2389 22.3858 100.805 50 100.805Z" fill="white"/>
<path d="M65 50.4025L42.5 63.4975V37.3076L65 50.4025Z" fill="#D9D9D9"/>
</svg>
