<svg width="104" height="104" viewBox="0 0 104 104" fill="none" xmlns="http://www.w3.org/2000/svg">
<path fill-rule="evenodd" clip-rule="evenodd" d="M103 52C103 23.8335 80.1665 1 52 1C23.8335 1 1 23.8335 1 52C1 80.1665 23.8335 103 52 103C80.1665 103 103 80.1665 103 52ZM52 104C80.7188 104 104 80.7188 104 52C104 23.2812 80.7188 0 52 0C23.2812 0 0 23.2812 0 52C0 80.7188 23.2812 104 52 104Z" fill="#3F7619"/>
<path d="M25.2929 51.2929C24.9024 51.6835 24.9024 52.3166 25.2929 52.7072L31.6569 59.0711C32.0474 59.4616 32.6805 59.4616 33.0711 59.0711C33.4616 58.6806 33.4616 58.0474 33.0711 57.6569L27.4142 52.0001L33.0711 46.3432C33.4616 45.9527 33.4616 45.3196 33.0711 44.929C32.6805 44.5385 32.0474 44.5385 31.6569 44.929L25.2929 51.2929ZM79 51.0001L26 51.0001V53.0001L79 53.0001V51.0001Z" fill="#3F7619"/>
</svg>
